<svg width="200" height="200" viewBox="0 0 200 200" xmlns="http://www.w3.org/2000/svg">
  <!-- QR Code Pattern -->
  <rect width="200" height="200" fill="white"/>
  
  <!-- Corner squares -->
  <rect x="10" y="10" width="50" height="50" fill="black"/>
  <rect x="20" y="20" width="30" height="30" fill="white"/>
  <rect x="25" y="25" width="20" height="20" fill="black"/>
  
  <rect x="140" y="10" width="50" height="50" fill="black"/>
  <rect x="150" y="20" width="30" height="30" fill="white"/>
  <rect x="155" y="25" width="20" height="20" fill="black"/>
  
  <rect x="10" y="140" width="50" height="50" fill="black"/>
  <rect x="20" y="150" width="30" height="30" fill="white"/>
  <rect x="25" y="155" width="20" height="20" fill="black"/>
  
  <!-- Timing patterns -->
  <rect x="70" y="30" width="10" height="10" fill="black"/>
  <rect x="90" y="30" width="10" height="10" fill="black"/>
  <rect x="110" y="30" width="10" height="10" fill="black"/>
  <rect x="130" y="30" width="10" height="10" fill="black"/>
  
  <rect x="30" y="70" width="10" height="10" fill="black"/>
  <rect x="30" y="90" width="10" height="10" fill="black"/>
  <rect x="30" y="110" width="10" height="10" fill="black"/>
  <rect x="30" y="130" width="10" height="10" fill="black"/>
  
  <!-- Data modules (simplified pattern) -->
  <rect x="70" y="70" width="10" height="10" fill="black"/>
  <rect x="80" y="70" width="10" height="10" fill="white"/>
  <rect x="90" y="70" width="10" height="10" fill="black"/>
  <rect x="100" y="70" width="10" height="10" fill="white"/>
  <rect x="110" y="70" width="10" height="10" fill="black"/>
  <rect x="120" y="70" width="10" height="10" fill="black"/>
  
  <rect x="70" y="80" width="10" height="10" fill="white"/>
  <rect x="80" y="80" width="10" height="10" fill="black"/>
  <rect x="90" y="80" width="10" height="10" fill="black"/>
  <rect x="100" y="80" width="10" height="10" fill="white"/>
  <rect x="110" y="80" width="10" height="10" fill="black"/>
  <rect x="120" y="80" width="10" height="10" fill="white"/>
  
  <rect x="70" y="90" width="10" height="10" fill="black"/>
  <rect x="80" y="90" width="10" height="10" fill="white"/>
  <rect x="90" y="90" width="10" height="10" fill="white"/>
  <rect x="100" y="90" width="10" height="10" fill="black"/>
  <rect x="110" y="90" width="10" height="10" fill="white"/>
  <rect x="120" y="90" width="10" height="10" fill="black"/>
  
  <rect x="70" y="100" width="10" height="10" fill="white"/>
  <rect x="80" y="100" width="10" height="10" fill="black"/>
  <rect x="90" y="100" width="10" height="10" fill="black"/>
  <rect x="100" y="100" width="10" height="10" fill="black"/>
  <rect x="110" y="100" width="10" height="10" fill="white"/>
  <rect x="120" y="100" width="10" height="10" fill="black"/>
  
  <rect x="70" y="110" width="10" height="10" fill="black"/>
  <rect x="80" y="110" width="10" height="10" fill="white"/>
  <rect x="90" y="110" width="10" height="10" fill="black"/>
  <rect x="100" y="110" width="10" height="10" fill="white"/>
  <rect x="110" y="110" width="10" height="10" fill="black"/>
  <rect x="120" y="110" width="10" height="10" fill="white"/>
  
  <rect x="70" y="120" width="10" height="10" fill="white"/>
  <rect x="80" y="120" width="10" height="10" fill="black"/>
  <rect x="90" y="120" width="10" height="10" fill="white"/>
  <rect x="100" y="120" width="10" height="10" fill="black"/>
  <rect x="110" y="120" width="10" height="10" fill="black"/>
  <rect x="120" y="120" width="10" height="10" fill="white"/>
  
  <!-- Additional data patterns -->
  <rect x="140" y="70" width="10" height="10" fill="black"/>
  <rect x="150" y="70" width="10" height="10" fill="white"/>
  <rect x="160" y="70" width="10" height="10" fill="black"/>
  <rect x="170" y="70" width="10" height="10" fill="black"/>
  <rect x="180" y="70" width="10" height="10" fill="white"/>
  
  <rect x="140" y="80" width="10" height="10" fill="white"/>
  <rect x="150" y="80" width="10" height="10" fill="black"/>
  <rect x="160" y="80" width="10" height="10" fill="white"/>
  <rect x="170" y="80" width="10" height="10" fill="black"/>
  <rect x="180" y="80" width="10" height="10" fill="black"/>
  
  <rect x="140" y="90" width="10" height="10" fill="black"/>
  <rect x="150" y="90" width="10" height="10" fill="white"/>
  <rect x="160" y="90" width="10" height="10" fill="black"/>
  <rect x="170" y="90" width="10" height="10" fill="white"/>
  <rect x="180" y="90" width="10" height="10" fill="black"/>
  
  <!-- Bottom section patterns -->
  <rect x="70" y="140" width="10" height="10" fill="black"/>
  <rect x="80" y="140" width="10" height="10" fill="white"/>
  <rect x="90" y="140" width="10" height="10" fill="black"/>
  <rect x="100" y="140" width="10" height="10" fill="black"/>
  <rect x="110" y="140" width="10" height="10" fill="white"/>
  <rect x="120" y="140" width="10" height="10" fill="black"/>
  
  <rect x="70" y="150" width="10" height="10" fill="white"/>
  <rect x="80" y="150" width="10" height="10" fill="black"/>
  <rect x="90" y="150" width="10" height="10" fill="white"/>
  <rect x="100" y="150" width="10" height="10" fill="black"/>
  <rect x="110" y="150" width="10" height="10" fill="black"/>
  <rect x="120" y="150" width="10" height="10" fill="white"/>
  
  <rect x="70" y="160" width="10" height="10" fill="black"/>
  <rect x="80" y="160" width="10" height="10" fill="white"/>
  <rect x="90" y="160" width="10" height="10" fill="black"/>
  <rect x="100" y="160" width="10" height="10" fill="white"/>
  <rect x="110" y="160" width="10" height="10" fill="black"/>
  <rect x="120" y="160" width="10" height="10" fill="black"/>
  
  <rect x="70" y="170" width="10" height="10" fill="white"/>
  <rect x="80" y="170" width="10" height="10" fill="black"/>
  <rect x="90" y="170" width="10" height="10" fill="white"/>
  <rect x="100" y="170" width="10" height="10" fill="black"/>
  <rect x="110" y="170" width="10" height="10" fill="white"/>
  <rect x="120" y="170" width="10" height="10" fill="black"/>
  
  <rect x="70" y="180" width="10" height="10" fill="black"/>
  <rect x="80" y="180" width="10" height="10" fill="white"/>
  <rect x="90" y="180" width="10" height="10" fill="black"/>
  <rect x="100" y="180" width="10" height="10" fill="black"/>
  <rect x="110" y="180" width="10" height="10" fill="white"/>
  <rect x="120" y="180" width="10" height="10" fill="black"/>
  
  <!-- Right section patterns -->
  <rect x="140" y="100" width="10" height="10" fill="white"/>
  <rect x="150" y="100" width="10" height="10" fill="black"/>
  <rect x="160" y="100" width="10" height="10" fill="white"/>
  <rect x="170" y="100" width="10" height="10" fill="black"/>
  <rect x="180" y="100" width="10" height="10" fill="white"/>
  
  <rect x="140" y="110" width="10" height="10" fill="black"/>
  <rect x="150" y="110" width="10" height="10" fill="white"/>
  <rect x="160" y="110" width="10" height="10" fill="black"/>
  <rect x="170" y="110" width="10" height="10" fill="white"/>
  <rect x="180" y="110" width="10" height="10" fill="black"/>
  
  <rect x="140" y="120" width="10" height="10" fill="white"/>
  <rect x="150" y="120" width="10" height="10" fill="black"/>
  <rect x="160" y="120" width="10" height="10" fill="white"/>
  <rect x="170" y="120" width="10" height="10" fill="black"/>
  <rect x="180" y="120" width="10" height="10" fill="white"/>
  
  <rect x="140" y="130" width="10" height="10" fill="black"/>
  <rect x="150" y="130" width="10" height="10" fill="white"/>
  <rect x="160" y="130" width="10" height="10" fill="black"/>
  <rect x="170" y="130" width="10" height="10" fill="white"/>
  <rect x="180" y="130" width="10" height="10" fill="black"/>
  
  <rect x="140" y="140" width="10" height="10" fill="white"/>
  <rect x="150" y="140" width="10" height="10" fill="black"/>
  <rect x="160" y="140" width="10" height="10" fill="white"/>
  <rect x="170" y="140" width="10" height="10" fill="black"/>
  <rect x="180" y="140" width="10" height="10" fill="white"/>
  
  <rect x="140" y="150" width="10" height="10" fill="black"/>
  <rect x="150" y="150" width="10" height="10" fill="white"/>
  <rect x="160" y="150" width="10" height="10" fill="black"/>
  <rect x="170" y="150" width="10" height="10" fill="white"/>
  <rect x="180" y="150" width="10" height="10" fill="black"/>
  
  <rect x="140" y="160" width="10" height="10" fill="white"/>
  <rect x="150" y="160" width="10" height="10" fill="black"/>
  <rect x="160" y="160" width="10" height="10" fill="white"/>
  <rect x="170" y="160" width="10" height="10" fill="black"/>
  <rect x="180" y="160" width="10" height="10" fill="white"/>
  
  <rect x="140" y="170" width="10" height="10" fill="black"/>
  <rect x="150" y="170" width="10" height="10" fill="white"/>
  <rect x="160" y="170" width="10" height="10" fill="black"/>
  <rect x="170" y="170" width="10" height="10" fill="white"/>
  <rect x="180" y="170" width="10" height="10" fill="black"/>
  
  <rect x="140" y="180" width="10" height="10" fill="white"/>
  <rect x="150" y="180" width="10" height="10" fill="black"/>
  <rect x="160" y="180" width="10" height="10" fill="white"/>
  <rect x="170" y="180" width="10" height="10" fill="black"/>
  <rect x="180" y="180" width="10" height="10" fill="white"/>
</svg>