<svg width="1920" height="400" viewBox="0 0 1920 400" fill="none" xmlns="http://www.w3.org/2000/svg">
  <defs>
    <linearGradient id="blueGradient" x1="0%" y1="0%" x2="100%" y2="100%">
      <stop offset="0%" style="stop-color:#1e3a8a;stop-opacity:1" />
      <stop offset="25%" style="stop-color:#2563eb;stop-opacity:1" />
      <stop offset="50%" style="stop-color:#3b82f6;stop-opacity:1" />
      <stop offset="75%" style="stop-color:#60a5fa;stop-opacity:1" />
      <stop offset="100%" style="stop-color:#93c5fd;stop-opacity:1" />
    </linearGradient>
  </defs>
  
  <!-- Background base -->
  <rect width="1920" height="400" fill="url(#blueGradient)"/>
  
  <!-- Organic shapes -->
  <path d="M0,200 Q480,100 960,150 T1920,120 L1920,0 L0,0 Z" fill="#1e40af" opacity="0.7"/>
  <path d="M0,300 Q320,250 640,280 T1280,260 Q1600,240 1920,280 L1920,0 L0,0 Z" fill="#2563eb" opacity="0.6"/>
  <path d="M0,150 Q240,100 480,130 Q720,160 960,140 Q1200,120 1440,150 Q1680,180 1920,160 L1920,0 L0,0 Z" fill="#3b82f6" opacity="0.5"/>
  
  <!-- Decorative circles -->
  <circle cx="200" cy="80" r="40" fill="#60a5fa" opacity="0.3"/>
  <circle cx="800" cy="120" r="60" fill="#93c5fd" opacity="0.2"/>
  <circle cx="1400" cy="90" r="35" fill="#dbeafe" opacity="0.4"/>
  <circle cx="1600" cy="140" r="25" fill="#bfdbfe" opacity="0.3"/>
  
  <!-- Additional organic elements -->
  <ellipse cx="400" cy="180" rx="80" ry="40" fill="#2563eb" opacity="0.3"/>
  <ellipse cx="1200" cy="160" rx="100" ry="50" fill="#3b82f6" opacity="0.2"/>
</svg>